<?xml version="1.0" encoding="iso-8859-1"?>
<!-- Generator: Adobe Illustrator 16.0.0, SVG Export Plug-In . SVG Version: 6.00 Build 0)  -->
<!DOCTYPE svg PUBLIC "-//W3C//DTD SVG 1.1//EN" "http://www.w3.org/Graphics/SVG/1.1/DTD/svg11.dtd">
<svg version="1.1" id="Capa_1" xmlns="http://www.w3.org/2000/svg" xmlns:xlink="http://www.w3.org/1999/xlink" x="0px" y="0px"
	 width="550.707px" height="550.707px" viewBox="0 0 550.707 550.707" style="enable-background:new 0 0 550.707 550.707;"
	 xml:space="preserve">
<g>
	<g>
		<path d="M231.129,196.198l44.854,46.687L457.287,68.694c-35.64-31.447-77.534-52.164-121.451-62.011
			C320.536,73.413,283.323,140.729,231.129,196.198z"/>
		<path d="M0.026,279.062c56.854-11.634,116.65-41.992,166.103-84.269L68.692,93.379C22.128,146.152-0.862,212.673,0.026,279.062z"
			/>
		<path d="M242.883,274.687l-44.854-46.689C140.578,277.86,71.758,312.401,4.478,325.042c8.082,44.275,27.105,86.966,57.103,123.836
			L242.883,274.687z"/>
		<path d="M349.272,385.419c-44.823,48.357-77.77,107.736-91.362,164.738c67.163,4.241,135.638-16.05,190.965-61.065
			L349.272,385.419z"/>
		<path d="M489.09,101.794l-181.305,174.19l42.735,44.48c57.858-50.203,127.385-84.934,195.18-97.335
			C537.361,179.748,518.521,137.966,489.09,101.794z"/>
		<path d="M101.792,61.58l97.482,101.463c44.278-47.767,76.98-106.286,90.872-162.645C223.822-3.161,156.407,17.146,101.792,61.58z"
			/>
		<path d="M317.418,352.268l-42.736-44.48L93.377,481.978c34.964,30.854,75.953,51.35,118.961,61.414
			C227.408,476.136,264.808,408.18,317.418,352.268z"/>
		<path d="M550.633,268.904c-58.131,11.313-117.822,41.457-168.236,84.741l99.579,103.646
			C529.173,403.804,552.187,336.19,550.633,268.904z"/>
	</g>
</g>
<g>
</g>
<g>
</g>
<g>
</g>
<g>
</g>
<g>
</g>
<g>
</g>
<g>
</g>
<g>
</g>
<g>
</g>
<g>
</g>
<g>
</g>
<g>
</g>
<g>
</g>
<g>
</g>
<g>
</g>
</svg>
